<?xml version="1.0" encoding="utf-8"?>
<!-- Generator: Adobe Illustrator 17.0.0, SVG Export Plug-In . SVG Version: 6.00 Build 0)  -->
<!DOCTYPE svg PUBLIC "-//W3C//DTD SVG 1.1//EN" "http://www.w3.org/Graphics/SVG/1.1/DTD/svg11.dtd">
<svg version="1.1" xmlns="http://www.w3.org/2000/svg" xmlns:xlink="http://www.w3.org/1999/xlink" x="0px" y="0px" width="1024px"
	 height="2048px" viewBox="0 0 1024 2048" enable-background="new 0 0 1024 2048" xml:space="preserve">
<g id="Layer_1" display="none">
	<path display="inline" d="M344.965,1032.771h-18.386v-38.653h17.945c7.894,0,12.75,3.919,12.75,9.996v0.11
		c0,4.36-2.322,6.793-5.076,8.335c4.47,1.707,7.233,4.305,7.233,9.5v0.11C359.431,1029.237,353.694,1032.771,344.965,1032.771z
		 M348.829,1005.545c0-2.543-1.992-3.975-5.581-3.975h-8.39v8.169h7.839c3.754,0,6.132-1.212,6.132-4.085V1005.545z
		 M350.987,1021.012c0-2.598-1.937-4.195-6.297-4.195h-9.831v8.5h10.106c3.754,0,6.022-1.322,6.022-4.195
		C350.987,1021.122,350.987,1021.012,350.987,1021.012z"/>
	<path display="inline" d="M366.325,1032.771v-38.653h8.5v30.915h19.267v7.729h-27.767V1032.771z"/>
	<path display="inline" d="M429.826,1032.771l-3.534-8.665h-16.339l-3.534,8.665h-8.665l16.559-38.929h7.839l16.568,38.929H429.826
		L429.826,1032.771z M418.123,1004.058l-5.131,12.53h10.262L418.123,1004.058z"/>
	<path display="inline" d="M459.567,1033.432c-11.373,0-19.818-8.775-19.818-19.873v-0.11c-0.009-10.997,8.28-19.992,20.148-19.992
		c7.288,0,11.648,2.432,15.237,5.966l-5.406,6.242c-2.983-2.708-6.022-4.36-9.886-4.36c-6.517,0-11.208,5.416-11.208,12.034v0.11
		c0,6.627,4.58,12.144,11.208,12.144c4.415,0,7.123-1.762,10.161-4.525l5.406,5.471
		C471.435,1030.779,467.02,1033.432,459.567,1033.432z"/>
	<path display="inline" d="M506.059,1032.771l-11.979-16.458l-4.47,4.635v11.814h-8.5v-38.644h8.5v16.899l15.678-16.899h10.271
		l-15.733,16.394l16.449,22.25h-10.216V1032.771z"/>
	<path display="inline" d="M556.36,1032.771h-18.386v-38.653h17.945c7.894,0,12.75,3.919,12.75,9.996v0.11
		c0,4.36-2.322,6.793-5.076,8.335c4.47,1.707,7.233,4.305,7.233,9.5v0.11C570.818,1029.237,565.081,1032.771,556.36,1032.771z
		 M560.225,1005.545c0-2.543-1.992-3.975-5.581-3.975h-8.39v8.169h7.839c3.754,0,6.132-1.212,6.132-4.085V1005.545z
		 M562.373,1021.012c0-2.598-1.937-4.195-6.297-4.195h-9.822v8.5h10.106c3.754,0,6.021-1.322,6.021-4.195v-0.11H562.373z"/>
	<path display="inline" d="M577.858,1032.771v-38.653h8.5v38.644h-8.5V1032.771z"/>
	<path display="inline" d="M618.907,1032.771l-8.28-12.364h-6.682v12.364h-8.5v-38.653h17.67c9.106,0,14.576,4.801,14.576,12.75
		v0.11c0,6.242-3.369,10.161-8.28,11.979l9.445,13.805h-9.95V1032.771z M619.072,1007.317c0-3.644-2.543-5.526-6.682-5.526h-8.445
		v11.098h8.61c4.14,0,6.517-2.212,6.517-5.462V1007.317z"/>
	<path display="inline" d="M650.079,1032.771h-15.072v-38.653h15.072c12.144,0,20.543,8.335,20.543,19.212v0.11
		C670.622,1024.317,662.233,1032.771,650.079,1032.771z M661.737,1013.439c0-6.848-4.691-11.648-11.648-11.648h-6.572v23.297h6.572
		c6.958,0,11.648-4.69,11.648-11.538V1013.439z"/>
	<g display="inline">
		<path d="M448.891,1064.2c-3.892,0-6.765-3.066-6.765-6.958c0-3.855,2.855-6.995,6.82-6.995c2.451,0,3.91,0.863,5.26,2.139
			l-1.037,1.12c-1.138-1.083-2.405-1.854-4.241-1.854c-2.983,0-5.223,2.405-5.223,5.553s2.258,5.59,5.223,5.59
			c1.854,0,3.066-0.716,4.36-1.946l1.001,0.982C452.884,1063.255,451.342,1064.2,448.891,1064.2z"/>
		<path d="M458.41,1050.477h1.524v12.08h7.591v1.404h-9.115V1050.477L458.41,1050.477z"/>
		<path d="M477.145,1064.2c-4.103,0-6.857-3.222-6.857-6.958s2.79-6.995,6.903-6.995c4.112,0,6.857,3.222,6.857,6.958
			C484.047,1060.941,481.248,1064.2,477.145,1064.2z M477.145,1051.652c-3.084,0-5.278,2.469-5.278,5.553
			c0,3.084,2.24,5.59,5.315,5.59c3.075,0,5.278-2.469,5.278-5.553S480.229,1051.652,477.145,1051.652z"/>
		<path d="M492.868,1063.97h-1.542v-12.089h-4.525v-1.404h10.602v1.404h-4.525v12.089H492.868z"/>
		<path d="M503.021,1057.894v6.067h-1.524v-13.493h1.524v5.994h7.784v-5.994h1.524v13.493h-1.524v-6.067H503.021z"/>
		<path d="M519.323,1050.477v13.493h-1.524v-13.493H519.323z"/>
		<path d="M534.67,1050.477h1.487v13.493h-1.212l-8.711-11.061v11.061h-1.487v-13.493h1.423l8.5,10.813V1050.477L534.67,1050.477z"
			/>
		<path d="M547.732,1064.2c-4.241,0-6.857-3.084-6.857-6.958c0-3.718,2.717-6.995,6.765-6.995c2.276,0,3.681,0.652,5.03,1.79
			l-0.982,1.157c-1.037-0.909-2.194-1.542-4.103-1.542c-2.983,0-5.122,2.524-5.122,5.553c0,3.24,2.065,5.627,5.342,5.627
			c1.542,0,2.965-0.597,3.892-1.349v-3.35h-4.103v-1.368h5.572v5.379C551.899,1063.255,550.008,1064.2,547.732,1064.2z"/>
	</g>
	<g display="inline">
		<rect x="324.119" y="1056.453" width="103.403" height="1.542"/>
		<rect x="567.752" y="1056.453" width="103.403" height="1.542"/>
	</g>
</g>
<g id="Layer_2">
	<g>
		<path fill="#FFFFFF" d="M448.657,1065.069c-3.892,0-6.765-3.066-6.765-6.958c0-3.855,2.855-6.995,6.82-6.995
			c2.451,0,3.91,0.863,5.26,2.139l-1.037,1.12c-1.138-1.083-2.405-1.854-4.241-1.854c-2.983,0-5.223,2.405-5.223,5.553
			s2.258,5.59,5.223,5.59c1.854,0,3.066-0.716,4.36-1.946l1.001,0.982C452.65,1064.123,451.108,1065.069,448.657,1065.069z"/>
		<path fill="#FFFFFF" d="M458.176,1051.346h1.524v12.08h7.591v1.404h-9.115L458.176,1051.346L458.176,1051.346z"/>
		<path fill="#FFFFFF" d="M476.911,1065.069c-4.103,0-6.857-3.222-6.857-6.958c0-3.736,2.79-6.995,6.903-6.995
			c4.112,0,6.857,3.222,6.857,6.958C483.813,1061.81,481.014,1065.069,476.911,1065.069z M476.911,1052.521
			c-3.084,0-5.278,2.469-5.278,5.553s2.24,5.59,5.315,5.59c3.075,0,5.278-2.469,5.278-5.553
			C482.225,1055.027,479.995,1052.521,476.911,1052.521z"/>
		<path fill="#FFFFFF" d="M492.634,1064.839h-1.542v-12.089h-4.525v-1.404h10.602v1.404h-4.525v12.089H492.634z"/>
		<path fill="#FFFFFF" d="M502.786,1058.763v6.067h-1.524v-13.493h1.524v5.994h7.784v-5.994h1.524v13.493h-1.524v-6.067H502.786z"/>
		<path fill="#FFFFFF" d="M519.089,1051.346v13.493h-1.524v-13.493H519.089z"/>
		<path fill="#FFFFFF" d="M534.436,1051.346h1.487v13.493h-1.212L526,1053.778v11.061h-1.487v-13.493h1.423l8.5,10.813V1051.346
			L534.436,1051.346z"/>
		<path fill="#FFFFFF" d="M547.498,1065.069c-4.241,0-6.857-3.084-6.857-6.958c0-3.718,2.717-6.995,6.765-6.995
			c2.276,0,3.681,0.652,5.03,1.79l-0.982,1.156c-1.037-0.909-2.194-1.542-4.103-1.542c-2.983,0-5.122,2.524-5.122,5.553
			c0,3.24,2.065,5.627,5.342,5.627c1.542,0,2.965-0.597,3.892-1.349v-3.35h-4.103v-1.368h5.572v5.379
			C551.665,1064.123,549.774,1065.069,547.498,1065.069z"/>
	</g>
	<g>
		<rect x="323.885" y="1057.321" fill="#FFFFFF" width="103.403" height="1.542"/>
		<rect x="567.518" y="1057.321" fill="#FFFFFF" width="103.403" height="1.542"/>
	</g>
	<text transform="matrix(1 0 0 1 323.9892 1035.4266)" fill="#FFFFFF" font-family="'Impact'" font-size="56" letter-spacing="2">TAILOR  SMITH</text>
</g>
</svg>
